<?xml version="1.0" standalone="no"?>
<!DOCTYPE svg PUBLIC "-//W3C//DTD SVG 20010904//EN"
 "http://www.w3.org/TR/2001/REC-SVG-20010904/DTD/svg10.dtd">
<svg version="1.0" xmlns="http://www.w3.org/2000/svg"
 width="64.000000pt" height="48.000000pt" viewBox="-8 -8 64.000000 64.000000"
 preserveAspectRatio="xMidYMid meet">
<metadata>
Created by potrace 1.10, written by Peter Selinger 2001-2011
</metadata>
<g transform="translate(0.000000,48.000000) scale(0.100000,-0.100000)"
fill="#5B5B5B" stroke="none">
<path d="M63 457 c-22 -22 -23 -28 -23 -229 0 -194 1 -208 19 -218 33 -17 198
-11 245 10 70 30 87 53 99 130 3 14 5 -10 6 -52 1 -85 4 -81 -74 -91 -22 -3
-19 -4 13 -6 84 -2 82 -8 82 227 0 149 -3 211 -12 220 -7 7 -42 12 -85 12 -42
0 -73 4 -73 10 0 6 -35 10 -87 9 -77 0 -91 -3 -110 -22z m47 -2 c0 -8 -9 -15
-20 -15 -17 0 -19 2 -8 15 17 19 28 19 28 0z m30 0 c0 -8 -4 -15 -10 -15 -5 0
-10 7 -10 15 0 8 5 15 10 15 6 0 10 -7 10 -15z m30 3 c0 -9 4 -8 10 2 6 10 10
11 10 3 0 -7 5 -13 11 -13 5 0 7 5 4 10 -3 6 -1 10 4 10 6 0 11 -6 11 -12 0
-9 4 -8 11 2 8 11 12 12 16 3 3 -9 29 -13 78 -13 61 0 76 -3 83 -17 5 -10 6
-67 2 -128 -4 -60 -8 -99 -8 -86 -4 57 -24 99 -51 106 -25 6 -25 7 -6 18 11 6
24 12 30 12 5 0 16 12 24 27 13 22 13 29 1 43 -7 9 -22 15 -34 13 -23 -3 -77
-77 -68 -93 3 -5 -4 -2 -15 8 -34 30 -115 16 -164 -29 -14 -13 -30 -24 -35
-24 -6 0 -11 -17 -11 -37 l-1 -38 13 30 c25 60 84 95 158 95 l41 0 -39 -40
c-46 -47 -39 -51 25 -11 52 32 63 29 99 -29 42 -70 16 -176 -54 -220 -81 -50
-198 -10 -234 80 -9 23 -10 23 -10 4 -1 -27 56 -99 89 -114 22 -9 20 -10 -15
-5 -22 3 -50 5 -63 5 -23 0 -24 1 -20 108 2 59 0 150 -3 202 -3 52 -4 76 -2
53 4 -38 7 -43 28 -43 14 0 39 9 57 20 18 11 50 20 71 20 22 0 49 8 62 18 23
18 21 18 -83 14 -59 -2 -109 -6 -112 -9 -2 -2 2 -9 10 -14 13 -9 13 -10 0 -6
-8 2 -16 13 -18 25 -3 22 -1 22 125 24 106 2 113 3 41 5 -69 3 -88 7 -88 18 0
8 5 15 10 15 6 0 10 -6 10 -12z m228 -45 c2 -8 -6 -13 -22 -13 -25 0 -33 10
-19 24 10 10 36 3 41 -11z m-19 -39 c3 -4 0 -5 -8 -2 -8 2 -23 -4 -33 -14 -24
-24 -45 -13 -23 12 16 17 50 19 64 4z"/>
<path d="M186 325 c-45 -16 -61 -29 -52 -44 11 -16 26 -13 20 4 -4 9 3 18 18
24 80 31 91 44 14 16z"/>
<path d="M375 330 c3 -5 10 -10 16 -10 5 0 9 5 9 10 0 6 -7 10 -16 10 -8 0
-12 -4 -9 -10z"/>
<path d="M313 304 c4 -6 -2 -19 -13 -29 -19 -17 -20 -17 -21 1 0 17 -2 16 -11
-3 -7 -14 -20 -23 -35 -23 -51 0 -79 -62 -48 -107 14 -20 90 -39 78 -19 -4 5
0 7 9 4 8 -4 15 -1 16 5 1 7 5 28 8 48 4 25 1 39 -10 48 -19 16 -21 32 -3 25
7 -2 22 5 32 16 15 17 16 23 5 33 -7 7 -10 7 -7 1z m-43 -79 c7 -8 9 -15 5
-15 -4 0 -2 -6 4 -14 17 -20 -3 -56 -29 -56 -22 0 -27 15 -8 26 7 4 8 3 4 -4
-4 -7 -2 -10 6 -7 20 8 17 44 -4 51 -25 8 -39 -4 -36 -29 4 -33 -15 -36 -26
-5 -8 22 -6 32 9 48 21 24 57 26 75 5z"/>
<path d="M160 108 c-12 -22 -12 -22 6 -6 10 10 15 20 12 24 -4 3 -12 -5 -18
-18z"/>
<path d="M183 95 c-3 -9 -3 -18 -1 -21 3 -3 8 4 11 16 6 23 -1 27 -10 5z"/>
<path d="M70 40 c0 -5 5 -10 10 -10 6 0 10 5 10 10 0 6 -4 10 -10 10 -5 0 -10
-4 -10 -10z"/>
<path d="M380 40 c0 -5 5 -10 10 -10 6 0 10 5 10 10 0 6 -4 10 -10 10 -5 0
-10 -4 -10 -10z"/>
</g>
</svg>
